# xmcd CD database file
#
# Track frame offsets:
#	150
#	11695
#	22640
#	32618
#	43785
#	55833
#	74120
#	86378
#	96678
#	106908
#	121303
#	134410
#	144758
#	158348
#	172458
#	188185
#	200073
#	213503
#	224360
#	236068
#	248215
#	262208
#	272790
#	282548
#
# Disc length: 3916 seconds
#
# Revision: 3
# Processed by: cddbd v1.5.2PL0 Copyright (c) Steve Scherf et al.
# Submitted via: CDex 1.79
#
DISCID=730f4a18
DTITLE=Johnny Bush - Johnny Bush Greatest Hits (1968-1972)
DYEAR=1993
DGENRE=Country
TTITLE0=What A Way To Live
TTITLE1=Warmth Of The Wine
TTITLE2=Each Time
TTITLE3=My Cup Runneth Over
TTITLE4=Undo The Right
TTITLE5=You Gave Me A Mountain
TTITLE6=Jim, Jack, And Rose
TTITLE7=It's All In The Game
TTITLE8=I'll Be There
TTITLE9=My Joy
TTITLE10=City Lights
TTITLE11=I'll Go To A Stranger
TTITLE12=When Daddy Lived In Houston
TTITLE13=When The Grass Grows Over Me
TTITLE14=Mama's Hungry Eyes
TTITLE15=When My Conscience Hurts The Most
TTITLE16=You'll Never Leave Me Completely
TTITLE17=Cuando Caliente Del Sol
TTITLE18=Cold, Cold Hands
TTITLE19=Life Turned Her That Way
TTITLE20=Unchained Melody
TTITLE21=Bottle, Bottle
TTITLE22=Apt. #9
TTITLE23=Today I Started Loving You Again
EXTD=YEAR: 1993
EXTT0=
EXTT1=
EXTT2=
EXTT3=
EXTT4=
EXTT5=
EXTT6=
EXTT7=
EXTT8=
EXTT9=
EXTT10=
EXTT11=
EXTT12=
EXTT13=
EXTT14=
EXTT15=
EXTT16=
EXTT17=
EXTT18=
EXTT19=
EXTT20=
EXTT21=
EXTT22=
EXTT23=
PLAYORDER=
